<?xml version="1.0" encoding="UTF-8"?>
<svg xmlns="http://www.w3.org/2000/svg" width="60" height="60" viewBox="0 0 60 60" fill="none">
  <path d="M53.5256 17.0034C53.039 16.3701 52.1313 16.2514 51.4978 16.7379C50.8644 17.2244 50.7453 18.1322 51.2318 18.7656C51.5884 19.2296 51.9046 19.7138 52.2405 20.205H52.241C49.2642 21.467 46.1865 22.4747 43.0399 23.2184C41.493 18.1604 38.8475 13.5073 35.2917 9.59129C36.5134 9.74236 37.721 9.99008 38.9032 10.3312C39.6604 10.5249 40.4346 10.0816 40.6509 9.33045C40.8676 8.57933 40.4482 7.79251 39.7036 7.55326C37.2996 6.85609 34.8089 6.50281 32.3054 6.50422H31.794C31.6209 6.47044 31.4426 6.47044 31.2695 6.50422C26.3184 6.69939 21.5184 8.26267 17.4022 11.0208C13.2859 13.7785 10.0143 17.6238 7.95104 22.1281C7.78964 22.4766 7.77416 22.8754 7.90788 23.2353C8.04206 23.5956 8.31417 23.8869 8.66417 24.045C9.01463 24.213 9.41857 24.2322 9.78311 24.0981C10.1481 23.9634 10.4432 23.6875 10.6013 23.3324C10.682 23.1574 10.7763 22.9829 10.8636 22.8079V22.8074C13.9479 24.3129 17.2015 25.4423 20.5554 26.1703C20.1942 28.4824 20.0145 30.8188 20.0173 33.1585C20.0079 35.569 20.197 37.9758 20.5822 40.3554C17.2207 41.0864 13.9582 42.2151 10.8635 43.7184C10.5609 43.1061 10.2785 42.4878 10.0294 41.8417C9.91067 41.4589 9.6381 41.1427 9.27731 40.9682C8.91653 40.7941 8.49944 40.7772 8.126 40.9222C7.75208 41.0667 7.45511 41.3604 7.30591 41.7324C7.15672 42.1045 7.16892 42.5215 7.33922 42.8842C9.23976 47.7391 12.5103 51.9371 16.7529 54.968C20.9955 57.9982 26.0273 59.7308 31.2364 59.9547C31.3429 59.9782 31.4508 59.9918 31.5596 59.995C31.6333 60.0016 31.7074 60.0016 31.7815 59.995H32.2793C39.3707 59.9899 46.1706 57.1707 51.185 52.1573C56.1999 47.1434 59.0209 40.3443 59.028 33.2528C59.0477 27.376 57.1119 21.6594 53.5261 17.0026L53.5256 17.0034ZM53.6804 22.7408C55.3037 26.0161 56.1487 29.6215 56.1487 33.2768C56.1487 36.9321 55.3037 40.538 53.6804 43.8132C50.4821 42.4357 47.1694 41.3422 43.7797 40.5441C44.3164 38.1147 44.5894 35.6339 44.5937 33.1459C44.5908 30.7433 44.3267 28.3483 43.8064 26.0029C47.1863 25.2034 50.4897 24.1122 53.6804 22.7408ZM40.195 23.7899C34.8161 24.7531 29.3133 24.8009 23.9184 23.9311C25.073 18.6249 27.7247 13.7606 31.5591 9.91487C35.5592 13.74 38.5294 18.5122 40.1949 23.7906L40.195 23.7899ZM12.2562 20.2857C14.0005 17.6063 16.2638 15.3033 18.9127 13.5129C21.5616 11.7221 24.5421 10.4802 27.6789 9.86097C24.444 13.7784 22.1831 18.4067 21.0806 23.3668C18.0292 22.6869 15.0679 21.6529 12.2561 20.2863L12.2562 20.2857ZM22.8831 33.1585C22.8822 31.0149 23.0487 28.8737 23.3809 26.7559C26.1128 27.2086 28.8776 27.4338 31.647 27.4282C34.7707 27.424 37.8882 27.1429 40.9622 26.5874C41.4351 28.7461 41.6739 30.9492 41.6753 33.1585C41.6716 35.4461 41.4163 37.7267 40.9153 39.9585C35.138 38.9085 29.2243 38.8513 23.428 39.7905C23.0668 37.5981 22.8843 35.3804 22.8833 33.1585L22.8831 33.1585ZM31.5663 56.585C27.9477 53.0541 25.3583 48.2114 23.9931 42.6156C29.3439 41.7631 34.7998 41.811 40.1352 42.7568C38.4828 48.0114 35.5365 52.7668 31.5664 56.5857L31.5663 56.585ZM12.3039 46.254C15.124 44.8855 18.0948 43.852 21.155 43.1736C22.2763 48.0998 24.5156 52.7022 27.6993 56.6253C24.5742 56.0014 21.6045 54.7632 18.9617 52.9828C16.3189 51.2024 14.0561 48.9152 12.3038 46.2542L12.3039 46.254ZM35.286 56.9077C38.8211 53.0033 41.4549 48.3699 43.0003 43.3347C46.1498 44.0726 49.2303 45.0781 52.208 46.341C50.3154 49.2179 47.8232 51.6514 44.9028 53.475C41.9818 55.2991 38.7014 56.4697 35.286 56.9073V56.9077Z" fill="#2171EF"></path>
  <path d="M43.309 11.4342L46.9948 17.225C47.1933 17.5384 47.5386 17.7284 47.9092 17.7284C48.2803 17.7284 48.6256 17.5384 48.8241 17.225L52.5099 11.4342C53.2244 10.4597 53.6044 9.27974 53.5927 8.07124C53.5889 6.24853 52.713 4.538 51.2366 3.46883C49.7601 2.40009 47.8614 2.10263 46.1284 2.66797C44.3958 3.2333 43.0381 4.59385 42.4765 6.32792C41.9149 8.062 42.2166 9.96013 43.2891 11.4343L43.309 11.4342ZM47.9097 4.56058H47.9092C48.8414 4.56246 49.7347 4.93216 50.3948 5.58991C51.0549 6.24768 51.4283 7.13951 51.4335 8.07128C51.433 8.83414 51.1829 9.57631 50.7208 10.1834C50.6856 10.2322 50.6542 10.2843 50.6265 10.3378L47.9364 14.6086L45.2463 10.3378H45.2458C45.221 10.2829 45.1895 10.2308 45.152 10.1834C44.7035 9.57118 44.4675 8.82986 44.4792 8.07128C44.4788 7.1522 44.8372 6.26875 45.4776 5.60961C46.118 4.94997 46.9907 4.56667 47.9092 4.5404L47.9097 4.56058Z" fill="#2171EF"></path>
  <path d="M47.9096 11.1244C48.7217 11.1244 49.5005 10.8016 50.0742 10.2273C50.6484 9.65259 50.9708 8.87373 50.9698 8.0617C50.9694 7.24959 50.6461 6.47128 50.0714 5.89741C49.4962 5.32411 48.7174 5.00226 47.9053 5.00367C47.0932 5.00507 46.3149 5.32879 45.742 5.90398C45.1687 6.47918 44.8477 7.25841 44.8496 8.07056C44.851 8.88126 45.1743 9.65774 45.7481 10.23C46.3218 10.8024 47.0992 11.1243 47.9095 11.1243L47.9096 11.1244ZM47.9096 7.1693C48.2708 7.1693 48.5969 7.38652 48.7357 7.72009C48.8741 8.05366 48.7991 8.43791 48.5448 8.69407C48.29 8.95023 47.9067 9.02858 47.5722 8.89205C47.2377 8.75599 47.0177 8.43181 47.0153 8.07056C47.0135 7.83222 47.1068 7.60281 47.2748 7.4339C47.4427 7.26453 47.6712 7.1693 47.9096 7.1693Z" fill="#2171EF"></path>
  <path d="M7.62166 40.3554L11.3074 34.5645C12.0121 33.5976 12.3912 32.4317 12.3903 31.2349C12.4433 29.6913 11.8671 28.1919 10.7937 27.0809C9.72026 25.97 8.24147 25.3427 6.69704 25.3427C5.15213 25.3427 3.67328 25.9699 2.59991 27.0809C1.52653 28.1919 0.950388 29.6913 1.00335 31.2349C0.999132 32.4322 1.37868 33.599 2.08617 34.5645L5.79201 40.3554C5.99092 40.6688 6.33576 40.8588 6.70687 40.8588C7.07797 40.8588 7.4232 40.6688 7.62166 40.3554ZM3.98993 33.4818H3.98946C3.96225 33.426 3.92847 33.3744 3.88859 33.327C3.44054 32.7147 3.20456 31.9734 3.21628 31.2148C3.21628 29.9561 3.88764 28.7925 4.97846 28.1629C6.06878 27.5333 7.4125 27.5333 8.50281 28.1629C9.59313 28.7926 10.265 29.9561 10.265 31.2148C10.2669 31.9772 10.0187 32.7189 9.55891 33.327C9.52091 33.3744 9.48947 33.4264 9.46461 33.4818L6.70688 37.7324L3.98993 33.4818Z" fill="#2171EF"></path>
  <path d="M6.70783 28.1348C5.89618 28.1348 5.11788 28.4575 4.54402 29.0313C3.96977 29.6051 3.64746 30.3835 3.64746 31.1951C3.64746 32.0068 3.96977 32.7851 4.54402 33.3594C5.1178 33.9332 5.89616 34.2555 6.70783 34.2555C7.51947 34.2555 8.29777 33.9332 8.87164 33.3594C9.44588 32.7852 9.76819 32.0068 9.76819 31.1951C9.76819 30.3835 9.44588 29.6052 8.87164 29.0313C8.29786 28.4575 7.51949 28.1348 6.70783 28.1348ZM6.70783 32.0832C6.2457 32.0429 5.89102 31.6558 5.89102 31.1918C5.89102 30.7278 6.2457 30.3407 6.70783 30.3009C6.95742 30.2788 7.20513 30.3633 7.38999 30.5326C7.57484 30.702 7.67993 30.9413 7.67993 31.1918C7.67993 31.4428 7.57484 31.6816 7.38999 31.8514C7.20513 32.0208 6.95742 32.1048 6.70783 32.0832Z" fill="#2171EF"></path>
  <path d="M4.77031 23.8495H4.82426C5.60213 23.8504 6.24162 23.2349 6.2702 22.4574C6.2702 22.0089 6.30398 21.5609 6.37107 21.1124C6.45833 20.3172 5.88502 19.6022 5.08979 19.5149C4.29503 19.4276 3.58007 20.0014 3.49228 20.7962C3.43832 21.3075 3.39798 21.825 3.3778 22.343H3.37827C3.36185 22.7277 3.49931 23.103 3.76111 23.3859C4.02243 23.6688 4.3856 23.8359 4.77031 23.8495Z" fill="#2171EF"></path>
  <path d="M6.1561 15.8793C6.50187 16.0482 6.90065 16.0721 7.26426 15.9459C7.62786 15.8197 7.92624 15.5537 8.09279 15.207C8.45498 14.462 8.86362 13.7409 9.31678 13.0479C9.76294 12.3812 9.58374 11.4791 8.91659 11.0334C8.24991 10.5877 7.34814 10.7669 6.90243 11.4336C6.37744 12.2311 5.90547 13.0624 5.48976 13.9225C5.3143 14.2692 5.28568 14.6727 5.41094 15.041C5.53621 15.4093 5.80503 15.7114 6.15596 15.8794L6.1561 15.8793Z" fill="#2171EF"></path>
  <path d="M20.7245 4.27798C20.8798 4.2761 21.0341 4.25124 21.1819 4.20385C21.9818 3.93878 22.7945 3.71452 23.6168 3.53107C24.0076 3.46492 24.3543 3.24066 24.5753 2.91131C24.7963 2.58196 24.8718 2.17613 24.785 1.78907C24.6982 1.40201 24.4566 1.06797 24.116 0.86436C23.7754 0.660747 23.3663 0.606327 22.9844 0.713292C22.0752 0.917843 21.1772 1.16932 20.2943 1.46629C19.621 1.69055 19.2096 2.36989 19.3236 3.07029C19.4371 3.77027 20.0419 4.28491 20.7518 4.28443L20.7245 4.27798Z" fill="#2171EF"></path>
  <path d="M12.5724 8.74383C12.9084 8.7443 13.2344 8.62795 13.4939 8.41401C14.1376 7.8787 14.8113 7.37998 15.5118 6.92111C16.0536 6.4496 16.1676 5.65208 15.7797 5.04819C15.3912 4.44392 14.6185 4.2159 13.965 4.51288C13.1763 5.03365 12.4154 5.59523 11.6849 6.19435C11.228 6.58095 11.0567 7.20914 11.2533 7.77397C11.4503 8.33884 11.9744 8.72449 12.5725 8.74372L12.5724 8.74383Z" fill="#2171EF"></path>
  <path d="M29.9117 2.89918C30.7571 2.91138 31.6011 2.96768 32.441 3.06714H32.6089C33.3521 3.04274 33.9554 2.45864 34.0042 1.71644C34.053 0.974695 33.5308 0.316497 32.797 0.195431C31.8573 0.082363 30.9124 0.0171473 29.9656 0.000260532C29.1671 -0.0147526 28.5074 0.620962 28.4924 1.41942C28.4779 2.21792 29.1131 2.87761 29.9116 2.89214L29.9117 2.89918Z" fill="#2171EF"></path>
  <path d="M38.5939 4.56045C39.0175 4.72185 39.4412 4.88981 39.8517 5.07841C40.0389 5.15769 40.2402 5.19898 40.4433 5.19945C41.1231 5.19523 41.7081 4.71762 41.8489 4.05282C41.9897 3.38755 41.6486 2.71425 41.0288 2.43513C40.5648 2.22682 40.1008 2.03822 39.6232 1.85665H39.6228C39.2582 1.6779 38.835 1.66102 38.4574 1.80974C38.0797 1.95846 37.7818 2.2592 37.6364 2.63874C37.4914 3.01781 37.5125 3.441 37.6945 3.80366C37.8766 4.16678 38.2031 4.43655 38.5939 4.54681L38.5939 4.56045Z" fill="#2171EF"></path>
</svg>
