<?xml version="1.0" encoding="UTF-8"?>
<svg xmlns="http://www.w3.org/2000/svg" width="60" height="60" viewBox="0 0 60 60" fill="none">
  <g clip-path="url(#clip0_30_3023)">
    <path d="M25.5645 22.8157C25.5645 23.7017 26.2607 24.3979 27.1467 24.3979H44.2985C45.1845 24.3979 45.8807 23.7017 45.8807 22.8157C45.8807 21.9296 45.1845 21.2334 44.2985 21.2334H27.1467C26.2607 21.2334 25.5645 21.9296 25.5645 22.8157Z" fill="#2171EF"></path>
    <path d="M54.1082 12.6259L43.0323 1.61328C42.273 0.853927 41.1971 0.410645 40.0577 0.410645H20.2477C19.1087 0.410645 18.096 0.853893 17.2731 1.67634C16.4502 2.49926 16.0705 3.51154 16.0705 4.651V31.4862C13.2856 34.0812 11.5135 37.8153 11.5135 41.9289C11.5135 45.3464 12.7162 48.4478 14.6781 50.9162L7.7795 57.752C7.14642 58.3851 7.14642 59.3974 7.7795 59.9674C8.09605 60.2839 8.47572 60.4106 8.91851 60.4106C9.36176 60.4106 9.74142 60.2839 10.0575 59.9674L16.9561 53.0688C19.4244 55.0307 22.5257 56.2334 25.9433 56.2334C31.1964 56.2334 35.8165 53.3854 38.285 49.1449H51.0697C53.4113 49.1449 55.3101 47.2461 55.3101 44.9045L55.3106 15.5998C55.3106 14.5239 54.8678 13.448 54.1084 12.6252L54.1082 12.6259ZM42.7792 5.79057L49.9311 12.9425H43.7919C43.2224 12.9425 42.7792 12.4993 42.7792 11.8666L42.7792 5.79057ZM25.9439 53.0686C19.7415 53.0686 14.7414 48.0689 14.7414 41.8661C14.7414 35.6637 19.7411 30.6635 25.9439 30.6635C32.1463 30.6635 37.1464 35.6633 37.1464 41.8661C37.1464 48.0684 32.0831 53.0686 25.9439 53.0686ZM52.1462 44.9674C52.1462 45.5369 51.7029 45.9802 51.0703 45.9802H39.678C40.0577 44.6508 40.3111 43.2589 40.3111 41.8665C40.3111 41.55 40.3111 41.2334 40.248 40.9173H44.2354C45.1214 40.9173 45.8176 40.2211 45.8176 39.3351C45.8176 38.449 45.1214 37.7528 44.2354 37.7528H39.6785C39.1089 35.854 38.1594 34.145 36.9572 32.6894H44.2354C45.1214 32.6894 45.8176 31.9932 45.8176 31.1072C45.8176 30.2211 45.1214 29.5249 44.2354 29.5249L33.2227 29.5245C31.0709 28.2588 28.6026 27.499 25.9445 27.499C23.5394 27.499 21.2609 28.132 19.2989 29.1444V4.58766C19.2989 4.33469 19.4256 4.01815 19.6154 3.82831C19.8053 3.63847 20.0587 3.51177 20.3748 3.51177H39.6784V11.8663C39.6784 14.208 41.5772 16.1068 43.9189 16.1068H52.2735L52.273 44.9673L52.1462 44.9674Z" fill="#2171EF"></path>
    <path d="M28.2863 42.1826C27.59 42.5623 26.7672 42.7521 25.8811 42.7521C25.0582 42.7521 24.2357 42.5623 23.5395 42.1826C22.1471 42.5623 21.1343 43.7649 20.9444 45.284L20.6915 47.4357C20.6283 47.879 21.008 48.3218 21.4508 48.3218H30.3749C30.8181 48.3218 31.1978 47.9421 31.1342 47.4357L30.8813 45.284C30.691 43.7649 29.6786 42.6254 28.2863 42.1826Z" fill="#2171EF"></path>
    <path d="M29.3626 37.5624C29.3626 39.4846 27.8042 41.043 25.8815 41.043C23.9588 41.043 22.4004 39.4846 22.4004 37.5624C22.4004 35.6397 23.9588 34.0813 25.8815 34.0813C27.8042 34.0813 29.3626 35.6397 29.3626 37.5624Z" fill="#2171EF"></path>
  </g>
  <defs>
    <clipPath id="clip0_30_3023">
      <rect width="60" height="60" fill="white"></rect>
    </clipPath>
  </defs>
</svg>
