<?xml version="1.0" encoding="UTF-8"?>
<svg xmlns="http://www.w3.org/2000/svg" width="60" height="60" viewBox="0 0 60 60" fill="none">
  <path d="M15.0599 50.5335C15.0599 49.849 15.6128 49.2891 16.2887 49.2891H42.0959C42.7718 49.2891 43.3247 49.849 43.3247 50.5335C43.3247 51.2179 42.7718 51.7778 42.0959 51.7778H16.2887C15.6128 51.7778 15.0599 51.2179 15.0599 50.5335ZM54.9996 38.089V44.3112C54.9996 44.9957 54.4467 45.5556 53.7708 45.5556H49.4697V53.0221C49.4697 55.76 47.2576 58 44.5539 58H13.8311C11.1274 58 8.91534 55.76 8.91534 53.0221L8.91577 44.9957L4.55291 42.2578C4.2456 42.0087 4 41.6354 4 41.2001C4 40.7643 4.2456 40.3911 4.55291 40.1424L8.91577 37.4045V6.97788C8.91577 4.24 11.1278 2 13.8315 2H44.5544C47.2581 2 49.4701 4.24 49.4701 6.97788V36.8445H53.7712C54.4467 36.8445 55 37.4044 55 38.0888L54.9996 38.089ZM11.3732 8.22243H47.0116V6.9781C47.0116 5.60922 45.9058 4.48944 44.554 4.48944L13.8312 4.48901C12.4794 4.48901 11.3736 5.60878 11.3736 6.97767L11.3732 8.22243ZM11.3732 36.8446H22.1262L20.59 36.0356C20.2214 35.8489 19.9754 35.4132 19.9754 34.9158V27.1376L14.5067 24.2132C14.0764 24.0265 13.8308 23.5908 13.8308 23.0934C13.8308 22.5955 14.0764 22.2223 14.5067 21.9736L28.6392 14.5071C29.0078 14.3204 29.4381 14.3204 29.8068 14.5071L43.9393 21.9736C44.3696 22.1602 44.6152 22.596 44.6152 23.0934C44.6152 23.5912 44.3696 23.9645 43.9393 24.2132L43.3247 24.5869V33.1112C43.3247 33.7956 42.7718 34.3555 42.0959 34.3555C41.42 34.3555 40.8671 33.7956 40.8671 33.1112V25.8312L38.4095 27.1381V34.9158C38.4095 35.3516 38.1639 35.7869 37.7948 36.0356L36.2587 36.8446H47.0117V10.7113H11.3732L11.3732 36.8446ZM40.6827 23.1557L29.1924 17.1202L17.7021 23.1557L29.1924 29.1913L40.6827 23.1557ZM29.7454 31.7425C29.5611 31.8046 29.3764 31.8671 29.1921 31.8671C29.0078 31.8671 28.8235 31.805 28.6392 31.7425L22.4333 28.4447V34.1692L29.1925 37.9027L35.9517 34.1692V28.4447L29.7454 31.7425ZM10.5129 43.0669H44.5538V39.3334H31.7731L29.8066 40.4531C29.6223 40.5777 29.438 40.5777 29.192 40.5777C28.9464 40.5777 28.7617 40.5156 28.5774 40.4531L26.6113 39.3334H10.5126L7.5633 41.2001L10.5129 43.0669ZM47.0116 45.5556H11.3732V53.0221C11.3732 54.391 12.479 55.5108 13.8308 55.5108H44.5536C45.9054 55.5108 47.0112 54.391 47.0112 53.0221L47.0116 45.5556ZM52.5415 39.3334H47.0116V43.0669H52.5415V39.3334Z" fill="#2171EF"></path>
</svg>
