<?xml version="1.0" encoding="UTF-8"?>
<svg xmlns="http://www.w3.org/2000/svg" width="60" height="60" viewBox="0 0 60 60" fill="none">
  <path d="M2.85126 35.2031H17.6037C17.7741 35.9765 18.3712 36.6642 19.2239 36.9217V53.5079C19.2239 54.8827 20.4178 56 21.9527 56H52.5662C54.1012 56 55.295 54.8827 55.295 53.5079L55.2946 37.0078C56.3181 36.664 57 35.8906 57 34.8595V26.6956C57 25.4065 55.8914 24.4611 54.5272 24.4611H46.7674V22.9142C46.7674 20.5079 44.8061 18.5313 42.4185 18.5313H32.1011C29.7134 18.5313 27.7521 20.508 27.7521 22.9142V24.4611H25.6204L25.62 9.07812C25.62 8.73432 25.5348 8.47675 25.2788 8.30465L18.3717 1.25796C18.2014 1.08586 17.9454 1 17.775 1H2.85269C2.34116 1 2 1.34381 2 1.85933V34.344C2 34.8599 2.34115 35.2037 2.85269 35.2037L2.85126 35.2031ZM29.4568 22.9133C29.4568 21.4522 30.6506 20.2491 32.1005 20.2491H42.4189C43.8687 20.2491 45.0625 21.4522 45.0625 22.9133V24.4602H29.4568V22.9133ZM52.5659 54.2808H21.9524C21.4409 54.2808 20.9289 53.937 20.9289 53.5073L20.9293 37.2655L34.317 39.4139V40.5311C34.317 41.9059 35.5108 43.0232 37.0458 43.0232H37.4721C39.0071 43.0232 40.2009 41.9059 40.2009 40.5311V39.328L53.5886 37.2655V53.5073C53.5886 53.937 53.0771 54.2808 52.5651 54.2808H52.5659ZM38.4958 37.093V40.6166C38.4958 41.0462 37.9843 41.39 37.4723 41.39H37.046C36.4493 41.39 36.0225 41.0462 36.0225 40.6166V37.093C36.0225 36.6634 36.534 36.3195 37.046 36.3195H37.4723C38.0694 36.2337 38.4958 36.6634 38.4958 37.093ZM55.2091 26.6953V34.8592C55.2091 35.1172 54.9531 35.3747 54.6123 35.3747L40.2016 37.6092V37.0079C40.2016 35.633 38.9225 34.5158 37.4728 34.5158H37.0464C35.5115 34.5158 34.3176 35.633 34.3176 37.0079V37.6092L19.8214 35.3747C19.4803 35.2889 19.2247 35.1168 19.2247 34.8592V26.6953C19.2247 26.4373 19.5659 26.1798 19.9922 26.1798H54.4428C54.8688 26.1794 55.2099 26.4373 55.2099 26.6953H55.2091ZM22.7202 8.13305H18.6271V3.92189L22.7202 8.13305ZM3.70451 2.71874H16.9224V8.99203C16.9224 9.50754 17.2635 9.85136 17.775 9.85136H23.9146V24.4605H19.992C18.6278 24.4605 17.5192 25.492 17.5192 26.695V27.3826H6.68922C6.17769 27.3826 5.83653 27.7264 5.83653 28.242C5.83653 28.7575 6.17768 29.1013 6.68922 29.1013H17.5192V33.4841H3.70536L3.70451 2.71874Z" fill="#2171EF" stroke="#2171EF" stroke-width="0.5"></path>
  <path d="M21.1444 18H6.85556C6.34231 18 6 18.4001 6 19C6 19.5999 6.3423 20 6.85556 20H21.1444C21.6577 20 22 19.5999 22 19C22 18.3996 21.6577 18 21.1444 18Z" fill="#2171EF"></path>
  <path d="M16.173 23H6.82703C6.33089 23 6 23.2 6 23.5C6 23.8 6.33088 24 6.82703 24H16.173C16.6691 24 17 23.8 17 23.5C17 23.2 16.5865 23 16.173 23Z" fill="#2171EF"></path>
  <path d="M6.86416 10H12.1358C12.6543 10 13 9.59991 13 9C13 8.4001 12.6543 8 12.1358 8H6.86416C6.34575 8 6 8.40009 6 9C6 9.5999 6.43208 10 6.86416 10Z" fill="#2171EF"></path>
  <path d="M43 15.7704L41.6149 16L41 12.2296L42.3851 12L43 15.7704Z" fill="#2171EF"></path>
  <path d="M48.6984 13L50 13.6268L48.3016 17L47 16.3732L48.6984 13Z" fill="#2171EF"></path>
  <path d="M56 18.6516L51.8419 21L51 19.3484L55.1581 17L56 18.6516Z" fill="#2171EF"></path>
  <path d="M26 50H29V52H26V50Z" fill="#2171EF"></path>
  <path d="M33 50H36V52H33V50Z" fill="#2171EF"></path>
  <path d="M39 50H42V52H39V50Z" fill="#2171EF"></path>
  <path d="M45 50H48V52H45V50Z" fill="#2171EF"></path>
  <path d="M15 42H16V49H15V42Z" fill="#2171EF"></path>
  <path d="M15 51H16V54H15V51Z" fill="#2171EF"></path>
</svg>
