<?xml version="1.0" encoding="UTF-8"?>
<svg xmlns="http://www.w3.org/2000/svg" width="60" height="60" viewBox="0 0 60 60" fill="none">
  <path d="M7.83863 20.9429C8.14744 20.2216 8.52535 19.5168 8.98013 18.8442L9 18.8113L7.31604 18L7.28668 18.041C6.78393 18.7871 6.35808 19.582 6.0095 20.3936L6 20.4346L7.83864 21L7.83863 20.9429Z" fill="#2171EF"></path>
  <path d="M7.46911 25.9553C7.54298 25.1072 7.71609 24.2678 7.98787 23.4552L8 23.4105L5.59208 23L5.57995 23.0446C5.28335 23.9554 5.08545 24.8927 5 25.8394V25.884L7.45647 26L7.46911 25.9553Z" fill="#2171EF"></path>
  <path d="M10.425 17L10.442 16.9779C10.8978 16.1407 11.4117 15.3473 11.9748 14.6203L12 14.576L10.8394 13L10.8143 13.0443C10.1927 13.8485 9.62147 14.73 9.10729 15.6556L9 15.6561L10.384 16.9891L10.425 17Z" fill="#2171EF"></path>
  <path d="M29.5859 52.0124L29.5251 52L29.0363 54.407L29 54.4829H29.0837C30.3013 54.7603 31.5664 54.9364 32.8214 55H32.8811L33 52.4794H32.9291C31.8192 52.4287 30.6959 52.265 29.5859 52.0124Z" fill="#2171EF"></path>
  <path d="M45.3804 48.0256C44.6529 48.6071 43.8599 49.1371 43.0216 49.6069L43 49.624L44.2451 50.9828L44.2894 51H44.4217L44.3666 50.9657C45.2811 50.4444 46.1519 49.8633 46.9557 49.2306L47 49.1962L45.4248 48L45.3804 48.0256Z" fill="#2171EF"></path>
  <path d="M36.5441 52.0121C35.7323 52.2832 34.893 52.4563 34.0446 52.5307H34L34.116 55H34.1606C35.1075 54.9135 36.0444 54.7161 36.9546 54.4196L37 54.4075L36.5895 52L36.5441 52.0121Z" fill="#2171EF"></path>
  <path d="M41.1535 50.0261C40.4714 50.6326 39.7643 51.1487 39.0411 51.5612L39 51.5744L39.5588 54L39.5999 53.9868C40.4057 53.5225 41.2026 52.9545 41.9589 52.2713L42 52.2454L41.1861 50L41.1535 50.0261Z" fill="#2171EF"></path>
  <path d="M34.0732 3C21.4314 3 11.1467 13.2391 11.1467 25.8245C11.1467 28.2717 11.5494 30.6582 12.3073 32.9514C11.9459 32.6426 11.5962 32.3169 11.2268 32.0206L10.2571 31.2417C8.83986 30.1027 6.79862 30.2117 5.50984 31.4943C4.22196 32.7769 4.11294 34.8085 5.25574 36.2204L6.0385 37.1858C6.50352 37.7599 7.00327 38.3106 7.49726 38.8644L3 50.1109L6.76919 53.8487L13.5755 44.8421L18.3326 49.2869C18.7968 49.7206 19.2827 50.1313 19.778 50.5314L18.9276 54.3418L21.5794 57L24.7754 53.8284L25.0625 53.9994C25.4189 54.2121 25.815 54.3157 26.207 54.3157C26.7824 54.3157 27.3507 54.0938 27.7802 53.6658C28.5033 52.9468 28.6417 51.8344 28.117 50.9599L27.9444 50.6728L30.2833 48.3367C31.5306 48.544 32.8007 48.649 34.0734 48.649C46.7152 48.649 57 38.41 57 25.8246C57 13.2392 46.7154 3 34.0732 3ZM39.1934 6.92206L38.9918 6.52512C38.833 6.21013 38.6621 5.84729 38.5081 5.46586C42.3382 6.2921 45.7729 8.16873 48.5096 10.7715C48.0966 11.2698 47.6957 11.7421 47.3067 12.1723C46.9164 12.6185 46.495 13.0726 46.0246 13.2888C45.4844 13.5298 44.8079 13.5284 44.2735 13.501C43.4405 13.4558 42.5874 13.3224 41.7406 13.1045C40.8702 12.879 40.6864 12.6171 40.6446 12.5064C40.5889 12.3633 40.6027 12.1072 40.6174 11.8352C40.6232 11.7213 40.629 11.6079 40.6321 11.4936C40.6646 9.79686 39.8827 8.26976 39.1934 6.92206ZM24.787 7.17547C24.7977 7.48471 24.787 7.80457 24.7705 8.14392C24.7362 8.83814 24.7015 9.55581 24.8778 10.3094C25.272 12.0053 26.5016 13.0943 27.691 14.1478C28.5205 14.8828 29.3042 15.577 29.7381 16.4267C29.8618 16.6633 29.8609 16.7404 29.8587 16.7732C29.8471 16.9327 29.3514 17.1852 28.9905 17.3695C28.6011 17.568 28.1592 17.7935 27.7814 18.116C26.8723 18.8935 26.0343 20.4848 27.2083 23.6516C27.7214 25.0179 28.1699 26.4213 27.5647 27.2422C27.328 27.5546 26.9293 27.8058 26.5065 28.0716L26.1492 28.2997C25.7113 28.5859 25.2169 28.9682 24.6584 29.4476L24.208 28.9975L14.398 32.8845C13.5787 30.6237 13.1399 28.2576 13.1399 25.8245C13.1399 17.6561 17.8968 10.5892 24.787 7.17547ZM15.9852 36.4146C15.5162 35.9175 15.0164 35.4479 14.5252 34.9704L23.7234 31.3252L24.9325 32.5342L17.5405 38.0635L15.9852 36.4146ZM6.55245 50.8328L5.3376 49.6283L8.99959 40.4697C9.4793 40.9592 9.9519 41.4572 10.4512 41.9236L12.1133 43.4764L6.55245 50.8328ZM21.5866 54.1904L21.1096 53.7129L21.5287 51.8362C21.9613 52.1299 22.4001 52.4139 22.8491 52.6815L23.0106 52.7776L21.5866 54.1904ZM26.369 52.2629C26.2951 52.3382 26.1781 52.3524 26.0869 52.2974L23.8734 50.9785C22.3742 50.0854 20.9698 49.0296 19.6975 47.8402L11.8164 40.4762C10.3088 39.067 8.88651 37.5408 7.58975 35.9397L6.80699 34.9744C6.30457 34.3541 6.35352 33.461 6.91913 32.8971C7.48651 32.3331 8.38233 32.2857 9.00525 32.7863L9.97491 33.5656C11.581 34.8539 13.1145 36.2694 14.5317 37.773L21.9291 45.6185C23.1243 46.8869 24.1857 48.286 25.081 49.7762L26.4058 51.9794C26.4606 52.0711 26.446 52.1867 26.369 52.2629ZM26.8879 48.9172L26.7913 48.7568C26.523 48.3107 26.2377 47.8743 25.9431 47.4441L27.8331 47.0264L28.3083 47.4986L26.8879 48.9172ZM29.8573 46.2338L28.4698 44.8529L24.6329 45.7008C24.2311 45.2073 23.8186 44.7231 23.3824 44.2601L18.9124 39.5189L27.9616 32.7499L26.0699 30.8582C26.5136 30.483 26.9105 30.1759 27.2451 29.9566L27.5713 29.7489C28.1009 29.4157 28.7003 29.0378 29.1639 28.426C30.4665 26.6614 29.596 24.3418 29.0772 22.9596C28.7265 22.0138 28.2606 20.3218 29.0798 19.6209C29.2774 19.4517 29.5791 19.2975 29.8995 19.1345C30.6823 18.7349 31.7547 18.1878 31.8446 16.9394C31.902 16.3511 31.6808 15.8438 31.5126 15.5191C30.911 14.3415 29.9476 13.4883 29.0157 12.6634C28.0162 11.7782 27.0706 10.9413 26.8197 9.85989C26.7057 9.37435 26.7329 8.82367 26.7614 8.24023C26.7827 7.80475 26.805 7.35463 26.7738 6.88188C26.7609 6.69803 26.7302 6.52126 26.7017 6.34361C28.9984 5.47927 31.4757 4.98446 34.0728 4.98446C34.8204 4.98446 35.5573 5.02744 36.2849 5.10364C36.5194 5.97018 36.887 6.77422 37.2091 7.41489L37.4165 7.82202C38.0569 9.07308 38.6608 10.2551 38.6381 11.4539L38.6265 11.7299C38.6043 12.1543 38.5758 12.6819 38.7823 13.2135C39.2749 14.5164 40.7528 14.8992 41.24 15.0255C42.2163 15.2763 43.2007 15.4305 44.1664 15.4823C44.3377 15.4916 44.5206 15.4982 44.7115 15.4982C45.3666 15.4982 46.1231 15.4203 46.8511 15.0942C47.6872 14.7101 48.3005 14.058 48.7989 13.4878C49.1522 13.0966 49.5189 12.6691 49.8945 12.2199C51.9322 14.5657 53.4438 17.3646 54.2729 20.4449C54.005 20.289 53.7309 20.1366 53.447 19.9939C50.5073 18.536 46.961 18.4517 43.9568 19.7662C42.0313 20.6142 39.9803 22.3915 39.9941 24.8375C39.9999 25.7896 40.331 26.6601 40.6229 27.4279C40.8966 28.1464 41.1542 28.8251 41.1115 29.4472C41.0706 30.0435 40.7515 30.6531 40.4137 31.2986C40.1712 31.7602 39.9211 32.2382 39.7409 32.7597C39.1197 34.5185 39.3951 36.3977 39.7467 38.0037C40.2785 40.435 41.0537 42.8105 42.0282 45.0911C39.5735 46.0994 36.8893 46.6638 34.0728 46.6638C32.6515 46.6638 31.2365 46.5147 29.8573 46.2338ZM43.8331 44.2456C42.9209 42.1 42.1946 39.8668 41.6953 37.5812C41.4034 36.2472 41.1658 34.7086 41.6232 33.4114C41.7576 33.0246 41.9628 32.6321 42.1799 32.2166C42.5791 31.4564 43.0308 30.5942 43.1006 29.5828C43.1727 28.528 42.8087 27.5702 42.4865 26.7253C42.2315 26.0542 41.9908 25.4206 41.9872 24.8257C41.9783 23.3371 43.4775 22.1476 44.7605 21.5818C47.2294 20.5022 50.1428 20.5722 52.5521 21.7674C53.0505 22.0177 53.5316 22.3119 54.0415 22.6238C54.2921 22.7775 54.5475 22.9224 54.8007 23.0713C54.9218 23.9746 55.0054 24.8889 55.0054 25.8241C55.0054 33.8065 50.469 40.7456 43.8331 44.2456Z" fill="#2171EF" stroke="#2171EF" stroke-width="0.5"></path>
</svg>
