<?xml version="1.0" encoding="UTF-8"?>
<svg xmlns="http://www.w3.org/2000/svg" width="60" height="60" viewBox="0 0 60 60" fill="none">
  <path d="M52.8736 12.5798H41.3444V8.81091C41.3444 5.57504 38.7663 3 35.6456 3H23.5483C20.4277 3 17.899 5.57504 17.899 8.81091V12.5798H7.12585C3.19668 12.5798 0 15.8661 0 19.9496V28.8325C0 31.4264 1.26055 33.7516 3.27735 35.0832V51.3662C3.27735 55.4503 6.49523 58.7136 10.4244 58.7136H49.5756C53.5048 58.7136 56.7227 55.4494 56.7227 51.3662V35.0832C58.7395 33.7515 60 31.4264 60 28.8325V19.9491C60 15.8655 56.8033 12.5793 52.8741 12.5793L52.8736 12.5798ZM20.4193 8.81091C20.4193 6.96467 21.8171 5.52099 23.5476 5.52099H35.645C37.3755 5.52099 38.8227 6.96467 38.8227 8.81091V12.5798H20.4192L20.4193 8.81091ZM49.5741 56.1929H10.4229C7.88394 56.1929 5.79684 54.06 5.79684 51.3666V36.1634L18.8714 40.3536C26.104 42.6909 33.8891 42.6909 41.1219 40.3536L54.1999 36.1642V51.3662C54.1999 54.0601 52.1125 56.193 49.5739 56.193L49.5741 56.1929ZM57.4774 28.8325C57.4774 31.0014 56.162 32.8805 54.2047 33.508L40.3429 37.9539V37.9544C33.6181 40.1296 26.3786 40.1296 19.6541 37.9544L5.7935 33.5085C3.83618 32.8805 2.52076 31.0014 2.52076 28.8325V19.9496C2.52076 17.2562 4.58665 15.1008 7.12562 15.1008H52.8735C55.4124 15.1008 57.4783 17.2562 57.4783 19.9496L57.4774 28.8325Z" fill="#2171EF"></path>
  <path d="M37.6895 24.6805H33.5298V20.5209C33.5298 20.1864 33.397 19.8659 33.1607 19.6295C32.9244 19.3932 32.6038 19.2604 32.2693 19.2604H27.7316C27.0356 19.2604 26.471 19.8249 26.471 20.5209V24.6806H22.3113C21.6154 24.6806 21.0508 25.2451 21.0508 25.9412V30.4789C21.0508 30.8134 21.1836 31.134 21.4199 31.3703C21.6563 31.6066 21.9768 31.7394 22.3113 31.7394H26.4709V35.8991C26.4709 36.2336 26.6037 36.5541 26.8401 36.7905C27.0764 37.0268 27.397 37.1596 27.7314 37.1596H32.2692C32.6037 37.1596 32.9242 37.0268 33.1606 36.7905C33.3969 36.5541 33.5297 36.2336 33.5297 35.8991V31.7394H37.6894C38.0239 31.7394 38.3444 31.6066 38.5808 31.3703C38.8171 31.134 38.9499 30.8134 38.9499 30.4789V25.9412C38.9499 25.6067 38.8171 25.2861 38.5808 25.0498C38.3444 24.8135 38.0239 24.6807 37.6894 24.6807L37.6895 24.6805ZM36.429 29.2183H32.2693C31.5733 29.2183 31.0087 29.7828 31.0087 30.4789V34.6386H28.9919V30.4789C28.9919 30.1444 28.8591 29.8239 28.6228 29.5875C28.3865 29.3512 28.0659 29.2184 27.7314 29.2184H23.5718V27.2016H27.7314C28.0659 27.2016 28.3865 27.0688 28.6228 26.8325C28.8591 26.5961 28.9919 26.2756 28.9919 25.9411V21.7814H31.0087V25.9411C31.0087 26.2756 31.1415 26.5961 31.3779 26.8325C31.6142 27.0688 31.9347 27.2016 32.2692 27.2016H36.4289L36.429 29.2183Z" fill="#2171EF"></path>
</svg>
