<?xml version="1.0" encoding="UTF-8"?>
<svg xmlns="http://www.w3.org/2000/svg" width="60" height="60" viewBox="0 0 60 60" fill="none">
  <path d="M55.9159 31.9062H33.9198V4.08123C33.9198 3.45529 33.4083 3 32.8398 3H4.08001C3.45478 3 3 3.51202 3 4.08123V55.8049C3 56.4308 3.51145 56.8861 4.08001 56.8861H32.4419C32.6124 56.9428 32.7829 57 32.9534 57H55.9157C56.5409 57 56.9957 56.488 56.9957 55.9188V33.0443C57.0524 32.4184 56.541 31.9064 55.9157 31.9064L55.9159 31.9062ZM21.6429 54.7237H15.0496V48.9768C15.0496 48.8061 15.1063 48.6354 15.1634 48.5215C15.6749 47.6681 16.7549 46.2456 18.5167 46.4162C20.1648 46.5301 21.0743 47.5542 21.5291 48.408C21.6429 48.5787 21.6429 48.7493 21.6429 48.9772L21.6429 54.7237ZM31.76 54.7237H23.8029V48.9201C23.8029 48.3509 23.6891 47.7821 23.4049 47.3268C22.8363 46.2456 21.4153 44.4817 18.6874 44.2543C15.6183 44.0269 13.9131 46.4167 13.2879 47.4407C13.0036 47.896 12.8898 48.4647 12.8898 48.9772V54.7812L5.16035 54.7808V5.16258H31.7603L31.76 54.7237ZM54.836 54.8944H34.0335V34.1253H54.836V54.8944Z" fill="#2171EF"></path>
  <path d="M37.0556 44H41.9444C42.5555 44 43 43.5155 43 42.9769V38.0231C43 37.4308 42.5001 37 41.9444 37H37.0556C36.4445 37 36 37.4845 36 38.0231V42.9769C36.0004 43.5692 36.4449 44 37.0556 44ZM38.1112 39.1H40.8889V41.9538H38.1112V39.1Z" fill="#2171EF"></path>
  <path d="M47.0556 44H51.9444C52.5555 44 53 43.5155 53 42.9769V38.0231C53 37.4308 52.5001 37 51.9444 37H47.0556C46.4445 37 46 37.4845 46 38.0231V42.9769C46.0004 43.5692 46.5003 44 47.0556 44ZM48.1112 39.1H50.8889V41.9538H48.1112V39.1Z" fill="#2171EF"></path>
  <path d="M47.0556 53H51.9444C52.5555 53 53 52.4463 53 51.8307V46.1693C53 45.4924 52.5001 45 51.9444 45H47.0556C46.4445 45 46 45.5537 46 46.1693V51.8307C46.0004 52.5076 46.5003 53 47.0556 53ZM48.1112 47.4H50.8889V50.6615H48.1112V47.4Z" fill="#2171EF"></path>
  <path d="M37.0556 53H41.9444C42.5555 53 43 52.5155 43 51.9769V47.0231C43 46.4308 42.5001 46 41.9444 46H37.0556C36.4445 46 36 46.4845 36 47.0231V51.9769C36 52.5155 36.4445 53 37.0556 53ZM38.1112 48.0463H40.8889V50.9001H38.1112V48.0463Z" fill="#2171EF"></path>
  <path d="M22.0556 40H26.9444C27.5555 40 28 39.5155 28 38.9769V34.0231C28 33.4308 27.5001 33 26.9444 33H22.0556C21.4445 33 21 33.4845 21 34.0231V38.9769C21 39.5155 21.4999 40 22.0556 40ZM23.1666 35.0463H25.9442V37.9001H23.1666V35.0463Z" fill="#2171EF"></path>
  <path d="M10.0556 40H14.9444C15.5555 40 16 39.5155 16 38.9769V34.0231C16 33.4308 15.5001 33 14.9444 33H10.0556C9.4445 33 9 33.4845 9 34.0231V38.9769C9 39.5151 9.50028 40 10.0556 40ZM11.1666 35.0463H13.9442V37.9001H11.1666V35.0463Z" fill="#2171EF"></path>
  <path d="M10.0556 29H14.9444C15.5555 29 16 28.5155 16 27.9769V23.0231C16 22.4308 15.5001 22 14.9444 22H10.0556C9.4445 22 9 22.4845 9 23.0231V27.9769C9 28.5155 9.50028 29 10.0556 29ZM11.1666 24.0463H13.9442V26.9001H11.1666V24.0463Z" fill="#2171EF"></path>
  <path d="M26.9444 22H22.0556C21.4445 22 21 22.4845 21 23.0231V27.9769C21 28.5692 21.4999 29 22.0556 29H26.9444C27.5555 29 28 28.5155 28 27.9769V23.0231C28 22.4308 27.5001 22 26.9444 22ZM25.8334 26.9H23.0558V24.0462H25.8334V26.9Z" fill="#2171EF"></path>
  <path d="M22.0556 18H26.9444C27.5555 18 28 17.5155 28 16.9769V12.0231C28 11.4308 27.5001 11 26.9444 11H22.0556C21.4445 11 21 11.4845 21 12.0231V16.9769C21 17.5692 21.4999 18 22.0556 18ZM23.1666 13.1H25.9442V15.9538H23.1666V13.1Z" fill="#2171EF"></path>
  <path d="M10.0592 18H14.945C15.5558 18 16 17.5155 16 16.9769V12.0231C16 11.4308 15.5004 11 14.945 11H10.0592C9.44844 11 9.0042 11.4845 9.0042 12.0231V16.9769C8.94882 17.5695 9.44841 18 10.0592 18ZM11.1142 13.1004H13.8901V15.9542H11.1142V13.1004Z" fill="#2171EF"></path>
</svg>
