<?xml version="1.0" encoding="UTF-8"?>
<svg xmlns="http://www.w3.org/2000/svg" width="60" height="60" viewBox="0 0 60 60" fill="none">
  <path d="M57.7336 41.0658L55.5352 38.3281C55.1819 37.888 54.6116 37.8911 54.2613 38.3346C53.9108 38.7781 53.9133 39.4943 54.2665 39.9342L56.4648 42.6719C56.6404 42.8908 56.8698 43 57.0991 43C57.3308 43 57.5625 42.8884 57.7386 42.6654C58.0891 42.2219 58.0868 41.5057 57.7336 41.0658Z" fill="#2171EF"></path>
  <path d="M52.7074 35.2928C52.3171 34.9024 51.6845 34.9024 51.294 35.2928L51.2923 35.2945C50.902 35.6849 50.9029 36.3171 51.2932 36.7075C51.488 36.9025 51.7437 37 51.9993 37C52.2555 37 52.5119 36.9021 52.7073 36.7067C53.0976 36.3163 53.0976 35.6833 52.7074 35.2928Z" fill="#2171EF"></path>
  <path d="M43.1324 40.1366L53.7895 29.4968C55.4035 27.8852 55.4035 25.2631 53.7894 23.6515C53.2202 23.0833 52.5251 22.7164 51.7929 22.5489C52.044 22.0101 52.1769 21.4187 52.1769 20.8067C52.1769 19.7026 51.7462 18.6647 50.9644 17.8842C50.3512 17.2718 49.5792 16.8764 48.7413 16.734C49.213 15.299 48.8796 13.6555 47.7387 12.5166C47.1114 11.8905 46.3313 11.5089 45.5171 11.3694C45.6535 10.9561 45.7254 10.5196 45.7254 10.0718C45.7254 8.96774 45.2948 7.92983 44.513 7.14928C43.731 6.36873 42.6915 5.93876 41.5857 5.93876C40.8836 5.93876 40.2084 6.11268 39.6086 6.43924L39.5026 6.32552C38.1251 4.84755 36.1752 4 34.1532 4H25.5268C24.9202 4 24.4282 4.49116 24.4282 5.0968V6.53508C24.4282 7.11068 24.5258 7.67103 24.7123 8.19794C24.2154 7.99189 23.6777 7.88366 23.1235 7.88366C22.0177 7.88366 20.9781 8.31363 20.1962 9.09418C19.0548 10.2337 18.7216 11.8784 19.1945 13.3138C18.3796 13.453 17.5984 13.8348 16.9705 14.4615C16.1887 15.2422 15.7581 16.2801 15.7581 17.384C15.7581 17.831 15.8298 18.2668 15.9657 18.6792C15.1287 18.8221 14.3575 19.2173 13.7448 19.8291C12.4842 21.0876 12.2082 22.9628 12.9168 24.4913C12.1665 24.6625 11.4774 25.0397 10.9196 25.5964C9.30561 27.2079 9.30561 29.83 10.9196 31.4416L13.1113 33.6296L2.32176 44.4015C1.89275 44.8298 1.89275 45.5243 2.32176 45.9527C2.53627 46.1668 2.81745 46.274 3.09851 46.274C3.37958 46.274 3.66076 46.1669 3.87527 45.9527L14.7689 35.0766C15.3856 35.428 16.0855 35.6159 16.8149 35.6159C17.9206 35.6159 18.9602 35.1859 19.7421 34.4053C20.5916 33.5573 20.9934 32.4292 20.9487 31.316C21.0043 31.3183 21.06 31.3199 21.1157 31.3199C22.1756 31.3198 23.2361 30.9169 24.0429 30.1114C24.8247 29.3307 25.2554 28.2928 25.2554 27.1889C25.2554 27.1331 25.2535 27.0776 25.2513 27.0221C25.3064 27.0243 25.3614 27.0261 25.4165 27.0261C26.4765 27.0261 27.5368 26.6232 28.3437 25.8175C29.1255 25.0369 29.5562 23.9989 29.5562 22.895C29.5562 22.8392 29.5543 22.7837 29.5521 22.7282C29.6072 22.7304 29.6622 22.7322 29.7173 22.7322C30.7774 22.7322 31.8376 22.3293 32.6445 21.5236C34.1611 20.0095 34.2524 17.6032 32.9191 15.9813L40.2115 8.70061C40.5784 8.33414 41.0661 8.13247 41.5851 8.13247C42.1041 8.13247 42.5918 8.33414 42.9588 8.70061C43.3257 9.06698 43.5277 9.55386 43.5277 10.072C43.5277 10.59 43.3258 11.0771 42.9587 11.4434L41.8835 12.5168L37.9824 16.4117C37.5534 16.84 37.5534 17.5345 37.9824 17.9629C38.1969 18.177 38.4781 18.2842 38.7591 18.2842C39.0402 18.2842 39.3214 18.1771 39.5359 17.9629L43.437 14.0681C44.1943 13.3119 45.4268 13.3117 46.1843 14.0679C46.9417 14.8243 46.9417 16.0546 46.1843 16.8109L45.109 17.8845L42.2832 20.7058C41.8542 21.1341 41.8542 21.8286 42.2832 22.257C42.4977 22.4711 42.7789 22.5783 43.06 22.5783C43.341 22.5783 43.6222 22.4712 43.8367 22.257L46.6625 19.4357C47.0295 19.0692 47.5173 18.8676 48.0361 18.8676C48.5551 18.8676 49.0429 19.0692 49.4098 19.4357C49.7768 19.8021 49.9788 20.289 49.9788 20.8071C49.9788 21.3251 49.7768 21.8122 49.4097 22.1785L47.9339 23.652L46.5839 24.9998C46.1549 25.4281 46.1549 26.1226 46.5839 26.551C46.7984 26.7651 47.0796 26.8723 47.3606 26.8723C47.6417 26.8723 47.9229 26.7652 48.1374 26.551L49.4884 25.2022C50.2459 24.4472 51.4776 24.4473 52.2347 25.2032C52.9922 25.9594 52.9922 27.1899 52.2347 27.9462L41.5776 38.586C38.9016 41.2578 35.345 42.8046 31.5631 42.9416C31.2851 42.9517 31.0211 43.0668 30.8247 43.2637L20.98 53.129C20.5517 53.5581 20.5529 54.2526 20.9828 54.6801C21.1971 54.8933 21.4776 55 21.7581 55C22.0399 55 22.3218 54.8924 22.5363 54.6773L29.7774 47.4212C31.6167 48.5992 33.7798 49.1594 35.9792 49.0142L41.6465 54.6725C41.861 54.8865 42.1422 54.9937 42.4232 54.9937C42.7044 54.9937 42.9855 54.8866 43.2 54.6725C43.629 54.2441 43.629 53.5497 43.2 53.1212L37.1744 47.1047C36.9463 46.8771 36.6293 46.7607 36.3079 46.787L35.9596 46.8155C34.3519 46.9471 32.7628 46.5956 31.3754 45.8193L32.0814 45.1119C36.2569 44.8547 40.1661 43.0982 43.1324 40.1366ZM18.1886 32.8543C17.8217 33.2208 17.3338 33.4224 16.815 33.4224C16.2961 33.4224 15.8083 33.2208 15.4414 32.8543L12.473 29.8908C11.7156 29.1346 11.7156 27.9041 12.473 27.1478C12.84 26.7813 13.3279 26.5796 13.8467 26.5796C14.3656 26.5796 14.8535 26.7813 15.2203 27.1478L18.1887 30.1113C18.946 30.8675 18.946 32.098 18.1886 32.8543ZM22.4896 28.5602C21.7321 29.3164 20.4994 29.3164 19.7422 28.5602L16.7738 25.5965L15.2979 24.123C14.5405 23.3668 14.5405 22.1363 15.2979 21.3801C15.6648 21.0136 16.1527 20.8119 16.6715 20.8119C17.1904 20.8119 17.6782 21.0136 18.0451 21.3801L22.4893 25.8172C22.4893 25.8172 22.4893 25.8172 22.4894 25.8172C22.8565 26.1837 23.0585 26.6707 23.0585 27.1887C23.0585 27.7067 22.8565 28.1938 22.4896 28.5602ZM26.7904 24.2662C26.0329 25.0223 24.8003 25.0224 24.043 24.2662L18.5235 18.7555C18.1565 18.3891 17.9546 17.9023 17.9546 17.3841C17.9546 16.8661 18.1565 16.379 18.5236 16.0127C18.9023 15.6346 19.3999 15.4456 19.8972 15.4456C20.3943 15.4456 20.8913 15.6344 21.2699 16.0119L23.7856 18.5235L26.7902 21.5233H26.7903C27.1572 21.8897 27.3592 22.3765 27.3592 22.8947C27.3594 23.4128 27.1574 23.8999 26.7904 24.2662ZM31.0914 19.9722C30.3339 20.7284 29.1015 20.7284 28.3441 19.9722L22.8245 14.4615C22.824 14.461 22.8233 14.4604 22.8227 14.4598L21.7492 13.3881C20.9918 12.6318 20.9918 11.4014 21.7492 10.6451C22.128 10.2669 22.6255 10.0778 23.1229 10.0778C23.6204 10.0778 24.1179 10.2669 24.4965 10.6451L31.0911 17.2291C31.4582 17.5954 31.6602 18.0824 31.6602 18.6005C31.6603 19.1187 31.4584 19.6059 31.0914 19.9722ZM31.3802 14.4156L28.3628 11.403C28.705 11.476 29.0568 11.5147 29.4148 11.5146C29.4229 11.5146 29.431 11.5146 29.4391 11.5146L32.4539 11.5004C33.0605 11.4976 33.5501 11.0042 33.5473 10.3985C33.5444 9.79446 33.0531 9.30681 32.4488 9.30681C32.447 9.30681 32.4453 9.30681 32.4435 9.30681L29.4288 9.32095C29.4242 9.32095 29.4198 9.32095 29.4152 9.32095C28.6724 9.32095 27.9737 9.0331 27.4469 8.5097C26.9169 7.9829 26.625 7.28174 26.625 6.53497V6.1935H34.1529C35.567 6.1935 36.9306 6.7862 37.8941 7.81984L37.9388 7.86776L31.3802 14.4156Z" fill="#2171EF"></path>
</svg>
