<svg width="190" height="35" viewBox="0 0 190 35" fill="none" xmlns="http://www.w3.org/2000/svg">
<path d="M38 2.64211V35H32.6139C31.1547 35 29.9718 33.8171 29.9718 32.3579V16.2791H33.7183L26.3592 6.10465L19 16.2791H22.7465V32.3579C22.7465 33.8171 21.5636 35 20.1044 35H17.628C16.1688 35 14.9859 33.8171 14.9859 32.3579V16.2791H18.7324L11.3732 6.10465L4.01408 16.2791H7.76056V32.3579C7.76056 33.8171 6.57765 35 5.11845 35H0V2.64211C0 1.18291 1.18291 0 2.64211 0H35.3579C36.8171 0 38 1.18291 38 2.64211Z" fill="#FCCC27"/>
<path d="M50 10.2129H55.1897L58.7596 19.0342H58.9396L62.5094 10.2129H67.6991V25.7871H63.6193V16.7833H63.4993L60.0795 25.6654H57.6196L54.1998 16.7224H54.0798V25.7871H50V10.2129Z" fill="white"/>
<path d="M78.0689 10.2129V25.7871H73.8991V10.2129H78.0689Z" fill="white"/>
<path d="M156.819 16.0532H152.589C152.559 15.6984 152.479 15.3764 152.349 15.0875C152.224 14.7985 152.049 14.5501 151.824 14.3422C151.604 14.1293 151.337 13.967 151.022 13.8555C150.707 13.7389 150.349 13.6806 149.949 13.6806C149.249 13.6806 148.657 13.853 148.172 14.1977C147.692 14.5425 147.327 15.0368 147.077 15.6806C146.832 16.3245 146.709 17.0976 146.709 18C146.709 18.9531 146.834 19.7516 147.084 20.3954C147.339 21.0342 147.707 21.5158 148.187 21.8403C148.667 22.1597 149.244 22.3194 149.919 22.3194C150.304 22.3194 150.649 22.2712 150.954 22.1749C151.259 22.0735 151.524 21.929 151.749 21.7414C151.974 21.5539 152.157 21.3283 152.297 21.0646C152.442 20.7959 152.539 20.4943 152.589 20.1597L156.819 20.1901C156.769 20.8492 156.587 21.5209 156.272 22.2053C155.957 22.8847 155.509 23.5133 154.929 24.0913C154.354 24.6641 153.642 25.1255 152.792 25.4753C151.942 25.8251 150.954 26 149.829 26C148.419 26 147.154 25.6933 146.035 25.0798C144.92 24.4664 144.037 23.564 143.387 22.3726C142.742 21.1812 142.42 19.7237 142.42 18C142.42 16.2662 142.75 14.8061 143.41 13.6198C144.07 12.4284 144.96 11.5285 146.08 10.9202C147.199 10.3067 148.449 10 149.829 10C150.799 10 151.692 10.1343 152.507 10.403C153.322 10.6717 154.037 11.0646 154.652 11.5817C155.267 12.0938 155.762 12.725 156.137 13.4753C156.512 14.2256 156.739 15.0849 156.819 16.0532Z" fill="white"/>
<path d="M166.893 10.2129V25.7871H162.723V10.2129H166.893Z" fill="white"/>
<path fill-rule="evenodd" clip-rule="evenodd" d="M103.961 25.7871V10.2129H110.591C111.731 10.2129 112.729 10.4233 113.584 10.8441C114.438 11.2649 115.103 11.8707 115.578 12.6616C116.053 13.4525 116.291 14.4005 116.291 15.5057C116.291 16.621 116.046 17.5615 115.556 18.327C115.103 19.0415 114.478 19.5927 113.682 19.9804L116.801 25.7871H112.271L109.574 20.6464H108.131V25.7871H103.961ZM109.601 17.3612H108.131V13.5894H109.601C110.091 13.5894 110.509 13.6578 110.854 13.7947C111.204 13.9265 111.471 14.1343 111.656 14.4183C111.846 14.6971 111.941 15.0596 111.941 15.5057C111.941 15.9468 111.846 16.3042 111.656 16.5779C111.471 16.8517 111.204 17.052 110.854 17.1787C110.509 17.3004 110.091 17.3612 109.601 17.3612Z" fill="white"/>
<path fill-rule="evenodd" clip-rule="evenodd" d="M125.86 25.7871H121.36L126.429 10.2129H132.129L137.199 25.7871H132.699L131.812 22.8061H126.747L125.86 25.7871ZM129.219 14.5019H129.339L130.87 19.6426H129.279H127.689L129.219 14.5019Z" fill="white"/>
<path fill-rule="evenodd" clip-rule="evenodd" d="M176.661 25.7871H172.161L177.231 10.2129H182.93L188 25.7871H183.5L182.613 22.8061H177.548L176.661 25.7871ZM180.02 14.5019H180.14L181.671 19.6426H178.49L180.02 14.5019Z" fill="white"/>
<path d="M93.821 15.3536C93.756 15.0849 93.6535 14.8492 93.5135 14.6464C93.3735 14.4385 93.1985 14.2636 92.9885 14.1217C92.7835 13.9747 92.5435 13.8657 92.2686 13.7947C91.9986 13.7186 91.7011 13.6806 91.3761 13.6806C90.6761 13.6806 90.0787 13.8504 89.5837 14.1901C89.0937 14.5298 88.7187 15.019 88.4587 15.6578C88.2038 16.2966 88.0763 17.0672 88.0763 17.9696C88.0763 18.8821 88.1988 19.6629 88.4437 20.3118C88.6887 20.9607 89.0537 21.4575 89.5387 21.8023C90.0237 22.147 90.6261 22.3194 91.3461 22.3194C91.9811 22.3194 92.5085 22.2256 92.9285 22.038C93.3535 21.8504 93.671 21.5843 93.881 21.2395C94.091 20.8948 94.1907 20.5653 94.1907 20.0989H91.4061V17.0875H98.2158V19.2471C98.2158 20.6667 97.9183 21.8809 97.3233 22.8897C96.7333 23.8935 95.9184 24.6641 94.8784 25.2015C93.8435 25.7338 92.656 26 91.3161 26C89.8212 26 88.5087 25.6781 87.3788 25.0342C86.2488 24.3904 85.3664 23.4727 84.7314 22.2814C84.1015 21.09 83.7865 19.673 83.7865 18.0304C83.7865 16.7427 83.979 15.602 84.3639 14.6084C84.7539 13.6147 85.2939 12.7757 85.9839 12.0913C86.6738 11.4018 87.4713 10.8821 88.3762 10.5323C89.2812 10.1774 90.2512 10 91.2861 10C92.1961 10 93.041 10.1318 93.821 10.3954C94.6059 10.654 95.2984 11.0241 95.8984 11.5057C96.5034 11.9823 96.9908 12.5475 97.3608 13.2015C97.7308 13.8555 97.9558 14.5729 98.0358 15.3536H93.821Z" fill="white"/>
</svg>
